PathFileType	4	(X/Y/Z)	 s02c0202.trc
DataRate	CameraRate	NumFrames	NumMarkers	Units	OrigDataRate	OrigDataStartFrame	OrigNumFrames
200	200	4	50	mm	200	1501	2000
Frame#	Time	racr			lacr			c7			jug			rlel			rdr			llel			ldr			s2			lic			ric			lasi			rasi			rpsi			lpsi			rgt			lgt			rth1			rth2			rth3			rth4			rlfc			rmfc			rsh1			rsh2			rsh3			rsh4			rlmal			rmmal			rtoe			rmt5			rmt1			lth1			lth2			lth4			lth3			llfc			lmfc			lsh1			lsh2			lsh3			lsh4			llmal			lmmal			lcal			ltoe			lmt5			SBIKE			LBIKE			RBIKE			
		X1	Y1	Z1	X2	Y2	Z2	X3	Y3	Z3	X4	Y4	Z4	X5	Y5	Z5	X6	Y6	Z6	X7	Y7	Z7	X8	Y8	Z8	X9	Y9	Z9	X10	Y10	Z10	X11	Y11	Z11	X12	Y12	Z12	X13	Y13	Z13	X14	Y14	Z14	X15	Y15	Z15	X16	Y16	Z16	X17	Y17	Z17	X18	Y18	Z18	X19	Y19	Z19	X20	Y20	Z20	X21	Y21	Z21	X22	Y22	Z22	X23	Y23	Z23	X24	Y24	Z24	X25	Y25	Z25	X26	Y26	Z26	X27	Y27	Z27	X28	Y28	Z28	X29	Y29	Z29	X30	Y30	Z30	X31	Y31	Z31	X32	Y32	Z32	X33	Y33	Z33	X34	Y34	Z34	X35	Y35	Z35	X36	Y36	Z36	X37	Y37	Z37	X38	Y38	Z38	X39	Y39	Z39	X40	Y40	Z40	X41	Y41	Z41	X42	Y42	Z42	X43	Y43	Z43	X44	Y44	Z44	X45	Y45	Z45	X46	Y46	Z46	X47	Y47	Z47	X48	Y48	Z48	X49	Y49	Z49	X50	Y50	Z50	
1501	7.5050	589.783979	1200.987445	-225.827806	517.797098	1233.064161	-544.701723	545.013613	1262.599878	-387.156056	475.049066	1141.050063	-374.286107	603.842697	1038.493267	-22.488731	704.895756	889.452252	-110.765284	509.954908	968.027079	-641.393521	690.725388	888.965863	-530.574434	22.521140	1132.991918	-288.944025	146.444210	1147.003026	-438.102945	157.778059	1114.750843	-151.880369	192.853866	1114.169924	-416.919487	205.929003	1089.503640	-182.717787	46.852631	1162.321285	-242.822736	47.565325	1174.734452	-326.810123	113.632536	1025.062682	-121.566985	110.549709	1064.846482	-477.720266	186.935444	950.112903	-107.163563	249.981704	888.057653	-103.046813	274.635280	807.863975	-82.524100	278.316389	902.459177	-123.473631	320.864799	676.452400	-118.824233	321.354284	661.326979	-227.036834	288.661357	571.935959	-105.123354	276.508828	485.435066	-125.031296	226.521574	415.441574	-126.161172	293.903071	483.601771	-160.627894	174.219865	312.017087	-139.267214	191.409305	329.057798	-216.351005	317.887964	135.070816	-186.087021	221.111713	186.301223	-127.541115	251.009374	184.242539	-233.258227	243.454414	1030.896466	-489.503816	327.921034	1021.319864	-482.470389	339.377375	1050.974142	-462.633625	399.746644	968.639276	-487.432547	493.369355	929.574085	-468.149586	500.736541	896.347084	-358.008895	462.177919	836.824201	-485.813647	437.553835	754.570764	-474.745890	372.485255	691.965663	-479.766399	457.925088	743.592414	-440.611584	301.063551	598.215968	-468.372119	320.166366	591.073085	-392.120647	224.615708	560.053810	-431.625991	499.204490	475.965124	-438.946794	390.460055	480.402180	-499.743510	-162.532907	858.125977	-314.914381	37.154719	87.288468	-514.114680	33.881340	82.987388	-114.127655	
1502	7.5100	589.972007	1199.493269	-228.410338	515.092367	1233.629576	-546.622643	543.993843	1262.501959	-388.954316	473.351526	1141.328976	-376.195072	605.084300	1039.429135	-23.511281	704.896565	889.575370	-111.116767	508.876491	967.812613	-641.182354	690.296049	889.133292	-530.814020	22.283527	1133.838826	-288.440689	146.175202	1147.061571	-437.701322	157.551448	1115.100145	-151.338399	192.516741	1114.183701	-416.430352	205.684088	1089.655423	-182.458348	46.649801	1163.390644	-241.976741	47.186504	1175.525470	-325.970399	113.721754	1025.712420	-120.694486	109.896117	1064.999685	-476.644808	187.746637	951.485870	-107.050284	251.753721	890.458190	-102.794049	277.711624	810.619086	-82.531032	279.831377	905.246390	-123.888746	325.785758	679.666942	-118.803671	326.040111	664.668692	-227.395531	291.452141	575.277499	-105.492724	276.576120	489.192872	-125.548421	224.498973	420.739558	-126.630464	293.624076	486.955462	-161.461241	168.719277	319.121294	-139.600255	186.281029	335.831541	-216.864117	308.624133	138.988616	-186.254250	212.932012	192.460693	-127.769141	242.828034	189.362400	-233.586618	240.772227	1028.409427	-484.690030	327.082589	1018.302117	-482.821137	338.955069	1047.478558	-463.337938	397.659792	964.014257	-488.538085	489.411303	921.705274	-470.190027	498.475104	889.679645	-359.840246	460.365835	828.769820	-486.940282	437.359967	746.000086	-475.996145	373.656438	681.935346	-480.838650	457.994090	735.803217	-442.066158	304.034224	587.782983	-468.689513	323.010723	581.030619	-392.467237	228.290082	546.192817	-431.926012	506.490767	473.608179	-439.410771	397.655330	473.683318	-500.351764	-162.616969	858.722246	-313.325878	37.166302	87.047245	-514.212532	33.873952	82.951494	-114.172511	
1503	7.5150	590.101199	1198.540299	-230.616254	512.658414	1234.356373	-548.431231	542.975739	1262.424137	-390.596817	472.087333	1141.394811	-377.799950	606.124648	1040.243988	-24.694699	704.816738	889.695189	-111.539005	507.794967	967.761805	-640.888729	689.790859	889.207587	-530.876796	22.099142	1134.574353	-287.866911	145.900650	1146.966189	-437.277274	157.450255	1115.279790	-150.973025	192.167144	1114.019300	-415.941853	205.465029	1089.715097	-182.254375	46.402331	1164.394396	-241.136088	46.838632	1176.057050	-325.051124	113.941730	1026.275967	-119.930350	109.243383	1064.977212	-475.672690	188.791754	952.848679	-107.300024	253.803577	892.954985	-102.907883	281.322289	813.836306	-82.204681	281.722115	908.264337	-123.883859	331.090947	683.059595	-119.005882	330.891067	668.033265	-227.945722	294.593207	578.734099	-105.956977	276.978530	493.118527	-126.281286	222.869993	426.297176	-127.107294	293.682475	490.588444	-162.298619	163.557910	326.685267	-139.856577	181.604171	342.989332	-217.327301	299.647415	143.545809	-186.379715	205.077361	198.990711	-128.076195	234.794692	195.041391	-234.067855	239.880007	1026.302343	-485.018940	325.992708	1014.546187	-483.617778	338.474649	1043.432985	-464.171092	395.450798	958.953167	-489.659115	486.510420	914.019956	-471.668084	495.980081	882.427955	-361.647751	458.500029	819.643511	-488.392338	437.328381	736.536890	-476.939071	374.947110	671.111059	-481.544646	457.863204	727.167155	-442.752110	306.801685	576.327600	-468.526670	326.184331	570.329838	-392.473708	232.701455	532.326454	-432.089775	513.470715	470.109351	-439.998123	404.596219	466.250606	-500.948736	-162.754014	858.394774	-314.239522	37.158310	86.790361	-514.286753	33.848209	82.913300	-114.211768	
1504	7.5200	590.192807	1197.943176	-232.564027	510.489464	1235.035188	-549.994963	542.012596	1262.510282	-392.127629	470.973229	1141.575794	-379.232690	606.874831	1040.898248	-26.118782	704.692456	889.809334	-111.991841	506.799498	967.817893	-640.422921	689.226976	889.156987	-530.817217	21.848561	1135.085741	-287.190666	145.389954	1146.680457	-436.883745	157.438030	1115.337258	-150.630852	191.639800	1113.730709	-415.508729	205.281329	1089.642970	-182.144061	46.198452	1164.984440	-240.298643	46.411607	1176.340998	-324.227742	114.269253	1026.732886	-119.231412	108.415281	1064.694905	-474.654402	190.126367	954.123649	-107.525068	256.101152	895.390442	-103.444523	285.303354	816.780478	-82.471938	283.777122	911.207040	-124.086561	336.730447	686.538188	-119.381404	335.842047	671.374140	-228.620359	298.172346	582.337177	-106.524812	277.704934	497.359057	-127.057130	221.631884	432.215591	-127.577360	293.996250	494.453042	-163.199162	158.786757	334.607272	-140.098326	177.216359	350.701875	-217.731795	291.045225	148.693368	-186.435523	197.562314	206.146506	-128.242581	227.431699	201.414857	-234.177374	238.958937	1023.814494	-485.488434	324.803493	1010.328801	-484.360876	337.679400	1039.052988	-466.075832	393.201967	953.349305	-490.729122	483.334395	905.919861	-472.945116	492.921101	874.769325	-363.176659	456.497443	809.753280	-490.133822	437.192314	726.278128	-477.427026	376.567806	659.583774	-481.968802	457.578607	718.017736	-442.944522	310.558051	565.466683	-468.579934	329.902952	559.321075	-392.244155	237.272370	518.539329	-431.967787	520.157962	465.586850	-440.520180	411.367277	458.276713	-501.348320	-162.806478	858.296660	-314.594963	37.111649	86.663305	-514.206741	33.836171	82.972677	-114.293615	
